<svg width="16" height="16" viewBox="0 0 16 16" fill="none" xmlns="http://www.w3.org/2000/svg">
<path d="M13.8333 8C13.8333 4.77834 11.2217 2.16667 8 2.16667C4.77834 2.16667 2.16667 4.77834 2.16667 8C2.16667 11.2217 4.77834 13.8333 8 13.8333C11.2217 13.8333 13.8333 11.2217 13.8333 8ZM8.83333 9.875V11.5417H7.16667V9.875H8.83333ZM8.83333 4.45833V8.625H7.16667V4.45833H8.83333ZM15.5 8C15.5 12.1421 12.1421 15.5 8 15.5C3.85786 15.5 0.5 12.1421 0.5 8C0.5 3.85786 3.85786 0.5 8 0.5C12.1421 0.5 15.5 3.85786 15.5 8Z" fill="white"/>
</svg>
